{"title":"IRON MAN III {2013} HDCAM  AVC 1080P AC3 $MURDER$","uid":8429199,"size":1793995185,"categoryP":"video","categoryS":"hd___movies","magnet":"?xt=urn:btih:3a81f096b12fc2465823a010c38f28f896479246&amp;dn=IRON+MAN+III+%7B2013%7D+HDCAM++AVC+1080P+AC3+%24MURDER%24&amp;tr=udp%3A%2F%2Ftracker.openbittorrent.com%3A80&amp;tr=udp%3A%2F%2Fopen.demonii.com%3A1337&amp;tr=udp%3A%2F%2Ftracker.coppersurfer.tk%3A6969&amp;tr=udp%3A%2F%2Fexodus.desync.com%3A6969","seeders":11,"leechers":2,"uploader":"xxxlavalxxx","files":-1,"time":1367440624,"description":"\n &lt;a href=&quot;\nhttp://www.imdb.com/title/tt1300854/&quot; rel=&quot;nofollow&quot; target=&quot;_NEW&quot;&gt;\nhttp://www.imdb.com/title/tt1300854/&lt;/a&gt;\n\n\n[b]Marvel's &quot;Iron Man 3&quot; pits brash-but-brilliant industrialist Tony Stark/Iron Man against an enemy whose reach knows no bounds. When Stark finds his personal world destroyed at his enemy's hands, he embarks on a harrowing quest to find those responsible. This journey, at every turn, will test his mettle. With his back against the wall, Stark is left to survive by his own devices, relying on his ingenuity and instincts to protect those closest to him. As he fights his way back, Stark discovers the answer to the question that has secretly haunted him: does the man make the suit or does the suit make the man? \n\n\n\nDirector:\n Shane Black \n\nWriters:\n Drew Pearce (screenplay), Shane Black (screenplay)\n\nStars:\n Robert Downey Jr., Gwyneth Paltrow, Guy Pearce\n\nGenres:\n  Action |  Sci-Fi |  Thriller \n\nCountry:\n USA | China \n\nLanguage:\n English \n\n[/b]\n\n\n\nIron Man 3 {2013} HDCAM 1080P AC3 - $MURDER$\n &lt;a href=&quot;\nhttp://www.imdb.com/title/tt1300854/&quot; rel=&quot;nofollow&quot; target=&quot;_NEW&quot;&gt;\nhttp://www.imdb.com/title/tt1300854/&lt;/a&gt;\n\n Complete name                            : Iron Man 3 {2013} HDCAM 1080P AC3 - $MURDER$\n Format                                   : Matroska\n Format version                           : Version 1\n File size                                : 1.65 GiB\n Duration                                 : 1h 58mn\n Overall bit rate                         : 1 998 Kbps\n Encoded date                             : UTC 2013-05-01 00:03:10\n ENCODER                                  : DOCMURDER82   Fumbling Towards Ecstasy\n\n Video\n ID                                       : 1\n Format                                   : AVC\n Format/Info                              : Advanced Video Codec\n Format profile                           : &lt;a class=&quot;__cf_email__&quot; href=&quot;/cdn-cgi/l/email-protection&quot; data-cfemail=&quot;773f1e101f373b445947&quot;&gt;[email&amp;#160;protected]&lt;/a&gt;&lt;script data-cfhash='f9e31' type=&quot;text/javascript&quot;&gt;\n/* &lt;![CDATA[ */!function(){try{var t=&quot;currentScript&quot;in document?document.currentScript:function(){for(var t=document.getElementsByTagName(&quot;script&quot;),e=t.length;e--;)if(t[e].getAttribute(&quot;data-cfhash&quot;))return t[e]}();if(t&amp;&amp;t.previousSibling){var e,r,n,i,c=t.previousSibling,a=c.getAttribute(&quot;data-cfemail&quot;);if(a){for(e=&quot;&quot;,r=parseInt(a.substr(0,2),16),n=2;a.length-n;n+=2)i=parseInt(a.substr(n,2),16)^r,e+=String.fromCharCode(i);e=document.createTextNode(e),c.parentNode.replaceChild(e,c)}t.parentNode.removeChild(t);}}catch(u){}}()/* ]]&gt; */&lt;/script&gt;\n Format settings, CABAC                   : No\n Format settings, ReFrames                : 1 frame\n Codec ID                                 : V_MPEG4/ISO/AVC\n Duration                                 : 1h 58mn\n Bit rate                                 : 1 800 Kbps\n Width                                    : 1 920 pixels\n Height                                   : 804 pixels\n Display aspect ratio                     : 2.40:1\n Frame rate                               : 25.000 fps\n Color space                              : YUV\n Chroma subsampling                       : 4:2:0\n Bit depth                                : 8 bits\n Scan type                                : Progressive\n Bits/(Pixel*Frame)                       : 0.047\n Stream size                              : 1.46 GiB (88%)\n Writing library                          : x264 core\n Default                                  : Yes\n Forced                                   : No\n\n Audio\n ID                                       : 2\n Format                                   : AC-3\n Format/Info                              : Audio Coding 3\n Mode extension                           : CM (complete main)\n Codec ID                                 : A_AC3\n Duration                                 : 1h 58mn\n Bit rate mode                            : Constant\n Bit rate                                 : 192 Kbps\n Channel(s)                               : 2 channels\n Channel positions                        : Front: L R\n Sampling rate                            : 48.0 KHz\n Bit depth                                : 16 bits\n Compression mode                         : Lossy\n Stream size                              : 162 MiB (10%)\n Default                                  : Yes\n Forced                                   : No\n\n\n &lt;a href=&quot;\nhttp://addpix.net/viewer.php?file=30063908152252253220.jpg&quot; rel=&quot;nofollow&quot; target=&quot;_NEW&quot;&gt;\nhttp://addpix.net/viewer.php?file=30063908152252253220.jpg&lt;/a&gt; &lt;a href=&quot;\nhttp://addpix.net/viewer.php?file=34892756301324499389.jpg&quot; rel=&quot;nofollow&quot; target=&quot;_NEW&quot;&gt;\nhttp://addpix.net/viewer.php?file=34892756301324499389.jpg&lt;/a&gt; &lt;a href=&quot;\nhttp://addpix.net/viewer.php?file=41568897347716609872.jpg&quot; rel=&quot;nofollow&quot; target=&quot;_NEW&quot;&gt;\nhttp://addpix.net/viewer.php?file=41568897347716609872.jpg&lt;/a&gt; &lt;a href=&quot;\nhttp://addpix.net/viewer.php?file=45982185242940135463.jpg&quot; rel=&quot;nofollow&quot; target=&quot;_NEW&quot;&gt;\nhttp://addpix.net/viewer.php?file=45982185242940135463.jpg&lt;/a&gt; &lt;a href=&quot;\nhttp://addpix.net/viewer.php?file=37206956469209079833.jpg&quot; rel=&quot;nofollow&quot; target=&quot;_NEW&quot;&gt;\nhttp://addpix.net/viewer.php?file=37206956469209079833.jpg&lt;/a&gt;\n","torrent":{"xt":"urn:btih:3a81f096b12fc2465823a010c38f28f896479246","amp;dn":"IRON+MAN+III+%7B2013%7D+HDCAM++AVC+1080P+AC3+%24MURDER%24","amp;tr":["udp%3A%2F%2Ftracker.openbittorrent.com%3A80","udp%3A%2F%2Fopen.demonii.com%3A1337","udp%3A%2F%2Ftracker.coppersurfer.tk%3A6969","udp%3A%2F%2Fexodus.desync.com%3A6969"],"infoHash":"3a81f096b12fc2465823a010c38f28f896479246","infoHashBuffer":{"type":"Buffer","data":[58,129,240,150,177,47,194,70,88,35,160,16,195,143,40,248,150,71,146,70]},"announce":[],"urlList":[]}}